<svg xmlns="http://www.w3.org/2000/svg" width="1080" height="430" viewBox="0 0 1080 430" role="img" aria-labelledby="title desc"><title id="title">Qualcomm AI Hub profile timing metrics</title><desc id="desc">Log-scale timing chart for one validated Midas V2 run on Snapdragon 8 Elite Gen 5 QRD.</desc><style>.bg{fill:#fff}.title{font:600 22px system-ui,sans-serif;fill:#0f172a}.sub{font:14px system-ui,sans-serif;fill:#475569}.label,.value,.tick{font:14px system-ui,sans-serif;fill:#0f172a}.tick{fill:#475569;text-anchor:middle}.grid{stroke:#cbd5e1;stroke-width:1}.axis{stroke:#64748b;stroke-width:1.5}.bar{fill:#2563eb}.note{font:12px system-ui,sans-serif;fill:#64748b}</style><rect class="bg" width="1080" height="430"/><text class="title" x="48" y="40">Qualcomm AI Hub Profile — Snapdragon 8 Elite Gen 5 QRD</text><text class="sub" x="48" y="64">Midas-V2 compiled target · timings use a logarithmic millisecond axis</text><line x1="240.0" y1="82" x2="240.0" y2="340" class="grid"/><text x="240.0" y="368" class="tick">0.1</text><line x1="430.0" y1="82" x2="430.0" y2="340" class="grid"/><text x="430.0" y="368" class="tick">1</text><line x1="620.0" y1="82" x2="620.0" y2="340" class="grid"/><text x="620.0" y="368" class="tick">10</text><line x1="810.0" y1="82" x2="810.0" y2="340" class="grid"/><text x="810.0" y="368" class="tick">100</text><line x1="1000.0" y1="82" x2="1000.0" y2="340" class="grid"/><text x="1000.0" y="368" class="tick">1000</text><line x1="240" y1="340" x2="1000" y2="340" class="axis"/><text x="222" y="136" class="label" text-anchor="end">Estimated inference</text><rect x="240" y="112" width="207.8" height="34" class="bar"/><text x="457.8" y="136" class="value">1.241 ms</text><text x="222" y="214" class="label" text-anchor="end">First app load</text><rect x="240" y="190" width="750.1" height="34" class="bar"/><text x="1000.1" y="214" class="value">886.925 ms</text><text x="222" y="292" class="label" text-anchor="end">Subsequent app load</text><rect x="240" y="268" width="566.5" height="34" class="bar"/><text x="816.5" y="292" class="value">95.899 ms</text><text class="sub" x="620.0" y="401" text-anchor="middle">Milliseconds (log scale)</text><text class="note" x="48" y="416">Source: results/qualcomm-validation/profile/ai-hub-profile.json · single hosted profile run</text></svg>
